# xmcd
#
# Track frame offsets:
#	150
#	15240
#	33005
#	46219
#	66205
#	84511
#	97795
#	119582
#	133868
#	146810
#	158983
#	174463
#	197047
#	216165
#	229204
#	242441
#	257641
#	283698
#
# Disc length: 3981 seconds
#
# Revision: 0
# Processed by: cddbd v1.5.1PL2 Copyright (c) Steve Scherf et al.
# Submitted via: dBpowerAMP V4.0
#
DISCID=f60f8b12
DTITLE=Tish Hinojosa - Retrospective
DYEAR=2006
DGENRE=Country
TTITLE0=Destiny's Gate
TTITLE1=Tu Que Puedes, Vuelvete (You Who Can, Return)
TTITLE2=Taos To Tennessee
TTITLE3=I Want To See You Again
TTITLE4=Aquella Noche (That Certain Night)
TTITLE5=Prairie Moon
TTITLE6=Reloj (Clock)
TTITLE7=Drifter's Wind
TTITLE8=Everything You Wish
TTITLE9=I'm Not Throught Loving You Yet
TTITLE10=Sign Of Truth
TTITLE11=Fence Post
TTITLE12=Manos, Huesos Y Sangre (Hands, Bone and Blood)
TTITLE13=Always
TTITLE14=Pajarillo Barranqueno (Little Riverside Bird)
TTITLE15=Solo Tus Ojos (Only Your Eyes)
TTITLE16=Magnolia
TTITLE17=When It Rains (Cuando Llueve)
EXTD=cse
EXTT0=
EXTT1=
EXTT2=
EXTT3=
EXTT4=
EXTT5=
EXTT6=
EXTT7=
EXTT8=
EXTT9=
EXTT10=
EXTT11=
EXTT12=
EXTT13=
EXTT14=
EXTT15=
EXTT16=
EXTT17=
PLAYORDER=
